<svg class="svg-icon" style="width: 1em; height: 1em;vertical-align: middle;fill: currentColor;overflow: hidden;" viewBox="0 0 1024 1024" version="1.1" xmlns="http://www.w3.org/2000/svg"><path d="M932.571429 54.857143H91.428571c-20.228571 0-36.571429 16.342857-36.571428 36.571428v841.142858c0 20.228571 16.342857 36.571429 36.571428 36.571428h841.142858c20.228571 0 36.571429-16.342857 36.571428-36.571428V91.428571c0-20.228571-16.342857-36.571429-36.571428-36.571428zM552.914286 300.228571c-8.228571-12.457143-22.971429-18.742857-44.228572-18.742857-1.485714 0-3.428571 0.114286-6.057143 0.342857-2.514286 0.228571-7.542857 1.714286-14.742857 4.228572a90.742857 90.742857 0 0 0-20.457143 10.4c-6.285714 4.342857-13.142857 11.428571-20.571428 21.028571-7.314286 9.714286-13.142857 21.028571-17.485714 34.057143l-107.428572-9.6c0-14.171429 2.742857-28.228571 8-42.171428s13.485714-27.314286 24.457143-40c10.971429-12.8 24.114286-24 39.428571-33.6 15.314286-9.714286 33.828571-17.371429 55.314286-23.2 21.6-5.828571 44.685714-8.685714 69.6-8.685715 24.342857 0 46.4 2.971429 66.057143 8.8 19.657143 5.942857 35.542857 13.142857 47.314286 21.828572a133.714286 133.714286 0 0 1 29.6 29.371428c7.885714 10.971429 13.371429 21.142857 16.457143 30.514286 3.085714 9.371429 4.571429 17.942857 4.571428 26.057143v208.571428c0 7.314286 1.6 14.857143 4.914286 22.628572 3.314286 7.771429 7.2 14.628571 11.657143 20.571428 4.457143 5.942857 9.028571 11.314286 13.714285 16.342858 4.685714 4.914286 8.685714 8.8 12.114286 11.314285l4.685714 3.885715-82.857142 79.314285c-9.714286-8.8-19.314286-17.6-28.8-26.742857-9.485714-9.142857-16.571429-16-21.142858-20.685714l-6.971428-7.085714c-2.742857-2.628571-5.714286-6.514286-9.142857-11.657143-9.257143 13.942857-21.142857 26.057143-35.542857 36.342857-14.514286 10.285714-30.057143 17.828571-46.514286 22.514286-16.571429 4.685714-33.6 7.428571-51.085714 8.114285-17.485714 0.685714-34.285714-1.714286-50.171429-7.428571-15.885714-5.714286-30.285714-13.371429-42.971429-23.2-12.685714-9.828571-22.742857-23.085714-30.285714-40-7.542857-16.914286-11.314286-36-11.314286-57.6 0-19.885714 3.428571-38.057143 10.171429-54.514286 6.857143-16.571429 15.542857-30.285714 26.285714-41.257143 10.742857-10.971429 23.657143-20.8 38.857143-29.371428s30.171429-15.314286 44.8-20.228572c14.628571-4.8 30.4-8.914286 47.428572-12.228571 17.028571-3.314286 31.542857-5.485714 43.657142-6.514286 12.114286-1.028571 24.228571-1.828571 36.342858-2.285714v-45.028572c0-15.428571-2.628571-26.857143-7.657143-34.4z m206.285714 433.828572c-3.2 3.771429-8.571429 8.914286-16.114286 15.428571s-19.2 14.514286-34.857143 24.114286c-15.657143 9.6-32.914286 18.285714-51.428571 26.171429-18.628571 7.885714-41.485714 14.742857-68.685714 20.571428-27.085714 5.828571-55.085714 8.685714-83.771429 8.685714-29.028571 0-57.942857-3.657143-86.971428-10.971428-29.028571-7.314286-54.4-16.342857-76.342858-27.085714-21.828571-10.742857-42.971429-23.085714-62.971428-36.8-20.114286-13.828571-36.228571-26.171429-48.457143-37.142858-12.114286-10.971429-22.4-21.371429-30.628571-30.971428-1.942857-2.171429-3.2-4.114286-3.657143-5.828572-0.457143-1.714286-0.342857-3.2 0.342857-4.228571 0.685714-1.028571 1.714286-1.828571 2.971428-2.514286a8.48 8.48 0 0 1 8.457143 0.914286c46.742857 27.657143 83.314286 47.2 109.6 58.742857 94.742857 41.6 192 52.228571 291.771429 31.885714 46.285714-9.485714 93.828571-25.371429 142.742857-47.771428 3.657143-1.371429 6.857143-1.714286 9.485714-1.028572 2.628571 0.685714 4 2.742857 4 6.171429 0 3.2-1.828571 7.2-5.485714 11.657143z m68.457143-33.142857c-2.057143 12.685714-5.6 24.685714-10.4 36.342857-8.228571 19.542857-18.628571 34.285714-30.971429 43.885714-4.114286 3.314286-7.314286 4.342857-9.485714 3.2-2.171429-1.142857-2.171429-4 0-8.457143 5.142857-10.628571 10.514286-24.914286 16.228571-43.085714 5.714286-18.057143 6.514286-29.714286 2.4-34.857143-1.257143-1.714286-3.085714-2.971429-5.714285-4.114286-2.514286-1.028571-5.828571-1.714286-9.828572-2.171428s-7.657143-0.685714-10.742857-0.914286c-3.2-0.228571-7.428571-0.228571-12.8 0-5.371429 0.228571-9.142857 0.457143-11.542857 0.685714a999.314286 999.314286 0 0 1-19.542857 1.714286c-1.485714 0.228571-3.085714 0.457143-4.685714 0.571429-1.714286 0.114286-3.085714 0.228571-4 0.342857l-3.085715 0.342857c-1.142857 0.114286-1.942857 0.228571-2.514285 0.228571h-3.657143l-1.142857-0.228571-0.685715-0.571429-0.571428-1.028571c-1.485714-3.771429 4.228571-8.457143 17.142857-14.171429s25.485714-9.257143 37.6-10.628571c11.2-1.714286 24.342857-1.714286 39.428571-0.342857s24.342857 4.228571 27.771429 8.457143c2.628571 4 2.857143 12.228571 0.8 24.8zM481.142857 461.142857c-13.257143 5.6-23.885714 13.942857-31.771428 25.142857-7.885714 11.2-11.885714 24.685714-11.885715 40.571429 0 20.342857 8.571429 36 25.6 47.085714 16.114286 10.4 33.028571 13.028571 50.742857 7.771429 20.457143-5.942857 34.285714-20.457143 41.6-43.542857 3.428571-10.628571 5.142857-22.514286 5.142858-35.771429v-57.371429c-14.4 0.457143-27.885714 1.828571-40.571429 4.228572-12.685714 2.4-25.6 6.4-38.857143 11.885714z"  /></svg>